<svg xmlns="http://www.w3.org/2000/svg" width="32" height="32" xmlns:v="https://vecta.io/nano"><path d="M16 .395c-8.836 0-16 7.163-16 16 0 7.07 4.585 13.067 10.942 15.182.8.148 1.094-.347 1.094-.77l-.022-2.98c-4.452.968-5.4-1.888-5.4-1.888-.728-1.85-1.776-2.34-1.776-2.34-1.452-.993.1-.973.1-.973 1.606.113 2.452 1.65 2.452 1.65 1.427 2.446 3.743 1.74 4.656 1.33.143-1.034.558-1.74 1.016-2.14-3.554-.404-7.3-1.777-7.3-7.907a6.19 6.19 0 0 1 1.649-4.295c-.166-.403-.714-2.03.155-4.234 0 0 1.344-.43 4.4 1.64 1.276-.355 2.645-.532 4.005-.54 1.36.006 2.73.184 4.008.54 3.054-2.07 4.395-1.64 4.395-1.64.87 2.204.323 3.83.157 4.234 1.026 1.12 1.647 2.548 1.647 4.295 0 6.145-3.743 7.498-7.306 7.895.574.497 1.085 1.47 1.085 2.963l-.02 4.4c0 .426.288.925 1.1.768C27.42 29.457 32 23.462 32 16.395c0-8.837-7.164-16-16-16z"/></svg>